<?xml version="1.0" encoding="UTF-8"?>
<svg version="1.1" xmlns="http://www.w3.org/2000/svg" width="100" height="100">
<path d="M0 0 C30.36 0 60.72 0 92 0 C92.020625 10.704375 92.04125 21.40875 92.0625 32.4375 C92.071604 35.82185303 92.08070801 39.20620605 92.09008789 42.69311523 C92.09300674 45.35660767 92.09555537 48.02010055 92.09765625 50.68359375 C92.10026962 51.38009537 92.102883 52.07659698 92.10557556 52.79420471 C92.11285608 54.83601779 92.11333839 56.87785168 92.11352539 58.91967773 C92.115746 60.07217514 92.11796661 61.22467255 92.12025452 62.41209412 C92 65 92 65 91 66 C88.20547729 66.10051875 85.43563645 66.13615894 82.640625 66.12939453 C81.32608337 66.13202301 81.32608337 66.13202301 79.98498535 66.13470459 C77.07330373 66.13912432 74.1616823 66.13618469 71.25 66.1328125 C69.23600248 66.1334855 67.22200505 66.1344555 65.20800781 66.13571167 C60.98111195 66.13718881 56.75423717 66.13503358 52.52734375 66.13037109 C47.09619468 66.1246738 41.66509501 66.12795272 36.23394775 66.13394356 C32.07340113 66.13754874 27.91286631 66.13641078 23.75231934 66.13381577 C21.74914545 66.13314638 19.74597051 66.13397533 17.74279785 66.13629532 C14.94829448 66.13882115 12.15387229 66.13498224 9.359375 66.12939453 C8.52297485 66.13141876 7.68657471 66.13344299 6.8248291 66.13552856 C1.11426242 66.11426242 1.11426242 66.11426242 0 65 C-0.09409479 62.97505769 -0.11743122 60.9468013 -0.11352539 58.91967773 C-0.11340454 57.60012085 -0.11328369 56.28056396 -0.11315918 54.92102051 C-0.10812269 53.50854445 -0.10295606 52.09606885 -0.09765625 50.68359375 C-0.09664917 49.40681763 -0.09564209 48.1300415 -0.09460449 46.8145752 C-0.08935266 42.02220773 -0.07539156 37.22985301 -0.0625 32.4375 C-0.041875 21.733125 -0.02125 11.02875 0 0 Z M20 12 C20 15.3 20 18.6 20 22 C23.3 22 26.6 22 30 22 C30 18.7 30 15.4 30 12 C26.7 12 23.4 12 20 12 Z M34 12 C34 15.3 34 18.6 34 22 C37.3 22 40.6 22 44 22 C44 18.7 44 15.4 44 12 C40.7 12 37.4 12 34 12 Z M48 12 C48 15.3 48 18.6 48 22 C51.3 22 54.6 22 58 22 C58 18.7 58 15.4 58 12 C54.7 12 51.4 12 48 12 Z M62 12 C62 15.3 62 18.6 62 22 C65.3 22 68.6 22 72 22 C72 18.7 72 15.4 72 12 C68.7 12 65.4 12 62 12 Z M20 26 C20 29.3 20 32.6 20 36 C23.3 36 26.6 36 30 36 C30 32.7 30 29.4 30 26 C26.7 26 23.4 26 20 26 Z M34 26 C34 29.3 34 32.6 34 36 C37.3 36 40.6 36 44 36 C44 32.7 44 29.4 44 26 C40.7 26 37.4 26 34 26 Z M48 26 C48 29.3 48 32.6 48 36 C51.3 36 54.6 36 58 36 C58 32.7 58 29.4 58 26 C54.7 26 51.4 26 48 26 Z M62 26 C62 29.3 62 32.6 62 36 C65.3 36 68.6 36 72 36 C72 32.7 72 29.4 72 26 C68.7 26 65.4 26 62 26 Z M20 40 C20 43.3 20 46.6 20 50 C23.3 50 26.6 50 30 50 C30 46.7 30 43.4 30 40 C26.7 40 23.4 40 20 40 Z M34 40 C34 43.3 34 46.6 34 50 C37.3 50 40.6 50 44 50 C44 46.7 44 43.4 44 40 C40.7 40 37.4 40 34 40 Z M48 40 C48 43.3 48 46.6 48 50 C51.3 50 54.6 50 58 50 C58 46.7 58 43.4 58 40 C54.7 40 51.4 40 48 40 Z M62 40 C62 43.3 62 46.6 62 50 C65.3 50 68.6 50 72 50 C72 46.7 72 43.4 72 40 C68.7 40 65.4 40 62 40 Z " fill="#000000" transform="translate(4,30)"/>
<path d="M0 0 C0.9075 0.00257812 1.815 0.00515625 2.75 0.0078125 C4.11125 0.00394531 4.11125 0.00394531 5.5 0 C7.75 0.1328125 7.75 0.1328125 8.75 1.1328125 C8.75 3.4428125 8.75 5.7528125 8.75 8.1328125 C20.63 8.1328125 32.51 8.1328125 44.75 8.1328125 C44.75 5.8228125 44.75 3.5128125 44.75 1.1328125 C45.75 0.1328125 45.75 0.1328125 48 0 C48.9075 0.00257812 49.815 0.00515625 50.75 0.0078125 C52.11125 0.00394531 52.11125 0.00394531 53.5 0 C55.75 0.1328125 55.75 0.1328125 56.75 1.1328125 C56.79092937 3.46578683 56.79241723 5.79986475 56.75 8.1328125 C58.35681641 8.11541016 58.35681641 8.11541016 59.99609375 8.09765625 C61.39322743 8.08827951 62.79036299 8.07917919 64.1875 8.0703125 C64.89455078 8.06193359 65.60160156 8.05355469 66.33007812 8.04492188 C68.13693559 8.03627662 69.94387603 8.08061239 71.75 8.1328125 C75.99918293 12.38199543 72.75 20.12356037 72.75 26.1328125 C42.39 26.1328125 12.03 26.1328125 -19.25 26.1328125 C-19.25 9.1328125 -19.25 9.1328125 -18.25 8.1328125 C-15.71950598 8.05967683 -13.21695163 8.04033723 -10.6875 8.0703125 C-9.97658203 8.07482422 -9.26566406 8.07933594 -8.53320312 8.08398438 C-6.77209987 8.09580386 -5.01103964 8.11373987 -3.25 8.1328125 C-3.270625 6.9984375 -3.29125 5.8640625 -3.3125 4.6953125 C-3.2334746 0.19086482 -3.2334746 0.19086482 0 0 Z M0.75 4.1328125 C0.75 8.0928125 0.75 12.0528125 0.75 16.1328125 C2.07 16.1328125 3.39 16.1328125 4.75 16.1328125 C4.75 12.1728125 4.75 8.2128125 4.75 4.1328125 C3.43 4.1328125 2.11 4.1328125 0.75 4.1328125 Z M48.75 4.1328125 C48.75 8.0928125 48.75 12.0528125 48.75 16.1328125 C50.07 16.1328125 51.39 16.1328125 52.75 16.1328125 C52.75 12.1728125 52.75 8.2128125 52.75 4.1328125 C51.43 4.1328125 50.11 4.1328125 48.75 4.1328125 Z " fill="#000000" transform="translate(23.25,-0.1328125)"/>
</svg>
