<?xml version="1.0" encoding="UTF-8"?>
<svg version="1.1" xmlns="http://www.w3.org/2000/svg" width="96" height="96">
<path d="M0 0 C0.79541199 -0.00525696 1.59082397 -0.01051392 2.41033936 -0.01593018 C5.04198796 -0.02914387 7.67303265 -0.02038744 10.3046875 -0.01025391 C12.13167436 -0.01227425 13.95866044 -0.01518536 15.78564453 -0.01895142 C19.61563796 -0.02337662 23.44542157 -0.01693743 27.27539062 -0.00292969 C32.18853455 0.01416234 37.10118686 0.0043222 42.01431274 -0.01364708 C45.78722854 -0.02447963 49.56002749 -0.02104101 53.33294678 -0.0132637 C55.14467425 -0.01126023 56.95641229 -0.01372612 58.76812744 -0.02070236 C61.2988298 -0.02830821 63.82873233 -0.01672527 66.359375 0 C67.4862674 -0.00910904 67.4862674 -0.00910904 68.63592529 -0.0184021 C71.48256882 0.01651074 73.66080462 0.08134199 76.14419556 1.54989624 C77.61722746 4.16493921 77.56106189 6.19291715 77.56787109 9.18896484 C77.57732758 10.38030029 77.58678406 11.57163574 77.5965271 12.79907227 C77.59045441 14.086604 77.58438171 15.37413574 77.578125 16.70068359 C77.58014605 18.03442545 77.58305776 19.36816622 77.58682251 20.7019043 C77.59124446 23.49620085 77.5848194 26.29020957 77.57080078 29.08447266 C77.55370844 32.66592825 77.56355039 36.24670941 77.58151817 39.82814026 C77.59235981 42.58196086 77.58890804 45.33562161 77.5811348 48.08944702 C77.57816079 50.05206744 77.58727042 52.01469408 77.5965271 53.97729492 C77.58234238 55.7642981 77.58234238 55.7642981 77.56787109 57.58740234 C77.56548431 58.63758545 77.56309753 59.68776855 77.56063843 60.76977539 C77.1796875 63.38818359 77.1796875 63.38818359 76.14419556 65.22647095 C73.04584211 67.05868353 69.85701371 66.80463974 66.359375 66.77636719 C65.56396301 66.78162415 64.76855103 66.7868811 63.94903564 66.79229736 C61.31738704 66.80551106 58.68634235 66.79675463 56.0546875 66.78662109 C54.22770064 66.78864144 52.40071456 66.79155255 50.57373047 66.7953186 C46.74373704 66.79974381 42.91395343 66.79330462 39.08398438 66.77929688 C34.17084045 66.76220485 29.25818814 66.77204499 24.34506226 66.79001427 C20.57214646 66.80084682 16.79934751 66.7974082 13.02642822 66.78963089 C11.21470075 66.78762742 9.40296271 66.7900933 7.59124756 66.79706955 C5.0605452 66.8046754 2.53064267 66.79309246 0 66.77636719 C-0.7512616 66.78243988 -1.50252319 66.78851257 -2.27655029 66.79476929 C-5.12319382 66.75985644 -7.30142962 66.6950252 -9.78482056 65.22647095 C-11.25785246 62.61142798 -11.20168689 60.58345004 -11.20849609 57.58740234 C-11.21795258 56.39606689 -11.22740906 55.20473145 -11.2371521 53.97729492 C-11.23107941 52.68976318 -11.22500671 51.40223145 -11.21875 50.07568359 C-11.22077105 48.74194174 -11.22368276 47.40820096 -11.22744751 46.07446289 C-11.23186946 43.28016634 -11.2254444 40.48615761 -11.21142578 37.69189453 C-11.19433344 34.11043894 -11.20417539 30.52965777 -11.22214317 26.94822693 C-11.23298481 24.19440633 -11.22953304 21.44074558 -11.2217598 18.68692017 C-11.21878579 16.72429975 -11.22789542 14.76167311 -11.2371521 12.79907227 C-11.22296738 11.01206909 -11.22296738 11.01206909 -11.20849609 9.18896484 C-11.20610931 8.13878174 -11.20372253 7.08859863 -11.20126343 6.0065918 C-10.8203125 3.38818359 -10.8203125 3.38818359 -9.78482056 1.54989624 C-6.68646711 -0.28231634 -3.49763871 -0.02827256 0 0 Z " fill="#DFE1E3" transform="translate(14.8203125,13.61181640625)"/>
<path d="M0 0 C0.79541199 -0.00525696 1.59082397 -0.01051392 2.41033936 -0.01593018 C5.04198796 -0.02914387 7.67303265 -0.02038744 10.3046875 -0.01025391 C12.13167436 -0.01227425 13.95866044 -0.01518536 15.78564453 -0.01895142 C19.61563796 -0.02337662 23.44542157 -0.01693743 27.27539062 -0.00292969 C32.18853455 0.01416234 37.10118686 0.0043222 42.01431274 -0.01364708 C45.78722854 -0.02447963 49.56002749 -0.02104101 53.33294678 -0.0132637 C55.14467425 -0.01126023 56.95641229 -0.01372612 58.76812744 -0.02070236 C61.2988298 -0.02830821 63.82873233 -0.01672527 66.359375 0 C67.4862674 -0.00910904 67.4862674 -0.00910904 68.63592529 -0.0184021 C73.67545129 0.04340549 73.67545129 0.04340549 76.13964844 1.72833252 C77.81683759 4.40504373 77.64351902 6.31480843 77.1796875 9.38818359 C75.34375 11.44628906 75.34375 11.44628906 72.8046875 13.25537109 C71.90234375 13.91279297 71 14.57021484 70.0703125 15.24755859 C68.63945312 16.24529297 68.63945312 16.24529297 67.1796875 17.26318359 C65.74882812 18.29572266 65.74882812 18.29572266 64.2890625 19.34912109 C61.93124978 21.04674625 59.56190546 22.725066 57.1796875 24.38818359 C56.56867188 23.61732422 55.95765625 22.84646484 55.328125 22.05224609 C51.19830303 16.93126685 47.0593817 12.19284024 40.24609375 11.06933594 C38.10978854 10.91347907 36.00906002 10.86913626 33.8671875 10.88818359 C33.1153418 10.89462891 32.36349609 10.90107422 31.58886719 10.90771484 C25.52971271 11.10697739 20.71631959 12.0962238 16.1796875 16.38818359 C14.20449761 18.92637298 12.60263173 21.50654277 11.1796875 24.38818359 C6.0836348 22.82092561 2.52414376 19.66935246 -1.5078125 16.32568359 C-2.84381237 15.22911936 -4.18099705 14.13399658 -5.51953125 13.04052734 C-6.10565186 12.55575928 -6.69177246 12.07099121 -7.2956543 11.5715332 C-8.82701272 10.30353551 -8.82701272 10.30353551 -10.8203125 9.38818359 C-11.18094619 3.97867823 -11.18094619 3.97867823 -9.79736328 1.71322632 C-6.73475337 -0.33937092 -3.56320233 -0.02880253 0 0 Z " fill="#EDEEEE" transform="translate(14.8203125,13.61181640625)"/>
<path d="M0 0 C5.8086231 2.55896456 9.53498739 7.81997479 12.31640625 13.3828125 C13.36316049 26.76753885 13.36316049 26.76753885 10.50390625 31.1328125 C7.3793538 34.34663788 5.92038343 35.3348778 1.37890625 35.6953125 C-2.17391394 35.62334008 -4.10283973 34.96356652 -6.68359375 32.3828125 C-7.01359375 32.8778125 -7.34359375 33.3728125 -7.68359375 33.8828125 C-10.27187161 35.82402089 -12.49391353 35.92202724 -15.6796875 35.8046875 C-19.11352461 35.08177443 -20.64286152 33.10378881 -22.68359375 30.3828125 C-24.32104314 26.73004079 -24.1301362 22.32335375 -23.68359375 18.3828125 C-22.0467219 14.79728369 -20.99386792 13.58966195 -17.68359375 11.3828125 C-11.3610131 10.9311996 -11.3610131 10.9311996 -7.68359375 13.3828125 C-7.68359375 14.0428125 -7.68359375 14.7028125 -7.68359375 15.3828125 C-7.02359375 15.3828125 -6.36359375 15.3828125 -5.68359375 15.3828125 C-5.68359375 14.3928125 -5.68359375 13.4028125 -5.68359375 12.3828125 C-4.03359375 12.3828125 -2.38359375 12.3828125 -0.68359375 12.3828125 C-0.18859375 20.7978125 -0.18859375 20.7978125 0.31640625 29.3828125 C1.96640625 29.0528125 3.61640625 28.7228125 5.31640625 28.3828125 C7.15778809 22.85866698 7.10791372 17.44227826 4.75390625 12.0703125 C2.45330636 8.09582785 -0.2192317 5.62076385 -4.68359375 4.3828125 C-10.45848822 3.683708 -16.44102005 3.28079837 -21.74609375 6.0078125 C-25.76930333 9.26062025 -28.05104455 12.48516491 -29.68359375 17.3828125 C-30.27383757 23.77333698 -29.96183513 29.74058033 -26.68359375 35.3828125 C-22.5855468 39.48085945 -18.69629916 41.27852725 -12.9140625 41.578125 C-11.5662666 41.56497577 -10.2185368 41.5413374 -8.87109375 41.5078125 C-7.83178711 41.49427734 -7.83178711 41.49427734 -6.77148438 41.48046875 C-5.0753698 41.45707407 -3.37943504 41.42120891 -1.68359375 41.3828125 C-1.64087275 43.04893155 -1.64295543 44.71664135 -1.68359375 46.3828125 C-3.57624937 48.27546812 -6.72234228 47.60069689 -9.24609375 47.6328125 C-18.41843745 47.5305878 -24.21069386 45.77665739 -30.984375 39.46875 C-35.57953795 33.82779135 -36.35255304 26.40688505 -35.68359375 19.3828125 C-34.09672195 12.97055504 -32.17924048 7.24127283 -26.74609375 3.1953125 C-25.73546875 2.5971875 -24.72484375 1.9990625 -23.68359375 1.3828125 C-22.85408203 0.84333984 -22.85408203 0.84333984 -22.0078125 0.29296875 C-15.73728857 -2.16254734 -6.53235179 -1.50234583 0 0 Z " fill="#379CD6" transform="translate(59.68359375,24.6171875)"/>
<path d="M0 0 C2.97382476 1.48691238 5.21879312 2.79046528 7.8203125 4.75 C8.52027344 5.2759375 9.22023438 5.801875 9.94140625 6.34375 C10.66199219 6.8903125 11.38257813 7.436875 12.125 8 C12.85332031 8.5465625 13.58164062 9.093125 14.33203125 9.65625 C19.71851504 13.71851504 19.71851504 13.71851504 22 16 C21.69701724 17.6724504 21.358175 19.33849479 21 21 C21.17238959 22.93357249 21.35931217 24.86588883 21.55859375 26.796875 C21.59052549 30.58455957 21.49699853 32.36315113 19.14501953 35.37695312 C16.55048612 37.54475742 13.89991852 39.41232365 11.0625 41.25 C10.11697266 41.91128906 9.17144531 42.57257813 8.19726562 43.25390625 C1.34343459 48 1.34343459 48 0 48 C0 32.16 0 16.32 0 0 Z " fill="#BDBEBE" transform="translate(4,23)"/>
<path d="M0 0 C0.66 0 1.32 0 2 0 C2 15.84 2 31.68 2 48 C-3.52464999 44.31690001 -8.85981417 40.70095032 -14.0625 36.625 C-14.64193359 36.17511719 -15.22136719 35.72523437 -15.81835938 35.26171875 C-17.21436935 34.17721513 -18.60751323 33.08902366 -20 32 C-19.505 30.515 -19.505 30.515 -19 29 C-19.0928125 27.97132812 -19.185625 26.94265625 -19.28125 25.8828125 C-19.84874002 16.13414459 -19.84874002 16.13414459 -16.3046875 12.04296875 C-12.07435692 8.27313541 -7.43907906 5.09812852 -2.65820312 2.06884766 C-1.03438859 1.10480122 -1.03438859 1.10480122 0 0 Z " fill="#C0C0C1" transform="translate(90,23)"/>
<path d="M0 0 C2.4375 -0.4375 2.4375 -0.4375 5 0 C6.875 1.5625 6.875 1.5625 8 4 C7.77100357 7.32044817 7.4949015 10.010197 6 13 C3.125 13.125 3.125 13.125 0 13 C-2.60704898 10.39295102 -2.23905333 8.52661759 -2.265625 4.97265625 C-2 3 -2 3 0 0 Z " fill="#E3E9EC" transform="translate(45,41)"/>
<path d="M0 0 C0.66 0 1.32 0 2 0 C1.10958641 6.01029172 -3.48104348 9.60080268 -8.0625 13.125 C-12.43156434 16.50199108 -15.59467525 19.00506385 -18 24 C-18.52991973 20.53567701 -18.68044789 17.45142846 -18 14 C-15.64487339 10.97281312 -12.74514067 9.03636375 -9.5625 6.9375 C-8.76005859 6.37095703 -7.95761719 5.80441406 -7.13085938 5.22070312 C-5.65584725 4.18134859 -4.1710928 3.15559008 -2.67407227 2.14819336 C-1.04486033 1.10592011 -1.04486033 1.10592011 0 0 Z " fill="#AEAEAE" transform="translate(90,23)"/>
<path d="M0 0 C0.66 0.33 1.32 0.66 2 1 C1.22914062 1.67546875 0.45828125 2.3509375 -0.3359375 3.046875 C-1.34924574 3.94759344 -2.36225071 4.84865313 -3.375 5.75 C-3.88289063 6.1934375 -4.39078125 6.636875 -4.9140625 7.09375 C-7.61932073 9.5142442 -9.67633768 11.58718389 -11 15 C-11.34375 12.3046875 -11.34375 12.3046875 -11 9 C-8.59375 6.4453125 -8.59375 6.4453125 -5.5 4.125 C-4.4790625 3.34382813 -3.458125 2.56265625 -2.40625 1.7578125 C-1.6121875 1.17773438 -0.818125 0.59765625 0 0 Z " fill="#B4B7BA" transform="translate(83,32)"/>
</svg>
