<svg width="18" height="18" viewBox="0 0 18 18" fill="none" xmlns="http://www.w3.org/2000/svg">
<path d="M9 15.7498L7.9125 14.7748C6.65 13.6373 5.60625 12.6561 4.78125 11.8311C3.95625 11.0061 3.3 10.2686 2.8125 9.61856C2.325 8.95606 1.98125 8.34981 1.78125 7.79981C1.59375 7.24981 1.5 6.68731 1.5 6.11231C1.5 4.9373 1.89375 3.95606 2.68125 3.16855C3.46875 2.38105 4.45 1.9873 5.625 1.9873C6.275 1.9873 6.89375 2.1248 7.48125 2.3998C8.06875 2.6748 8.575 3.06231 9 3.56231C9.425 3.06231 9.93125 2.6748 10.5187 2.3998C11.1062 2.1248 11.725 1.9873 12.375 1.9873C13.55 1.9873 14.5312 2.38105 15.3187 3.16855C16.1062 3.95606 16.5 4.9373 16.5 6.11231C16.5 6.68731 16.4 7.24981 16.2 7.79981C16.0125 8.34981 15.675 8.95606 15.1875 9.61856C14.7 10.2686 14.0437 11.0061 13.2188 11.8311C12.3938 12.6561 11.35 13.6373 10.0875 14.7748L9 15.7498ZM9 13.7248C10.2 12.6498 11.1875 11.7311 11.9625 10.9686C12.7375 10.1936 13.35 9.52481 13.8 8.96231C14.25 8.38731 14.5625 7.88106 14.7375 7.44356C14.9125 6.99356 15 6.54981 15 6.11231C15 5.36231 14.75 4.73731 14.25 4.23731C13.75 3.73731 13.125 3.48731 12.375 3.48731C11.7875 3.48731 11.2437 3.65606 10.7437 3.99356C10.2438 4.31856 9.9 4.73731 9.7125 5.24981H8.2875C8.1 4.73731 7.75625 4.31856 7.25625 3.99356C6.75625 3.65606 6.2125 3.48731 5.625 3.48731C4.875 3.48731 4.25 3.73731 3.75 4.23731C3.25 4.73731 3 5.36231 3 6.11231C3 6.54981 3.0875 6.99356 3.2625 7.44356C3.4375 7.88106 3.75 8.38731 4.2 8.96231C4.65 9.52481 5.2625 10.1936 6.0375 10.9686C6.8125 11.7311 7.8 12.6498 9 13.7248Z" fill="black"/>
</svg>
