<svg width="23" height="18" viewBox="0 0 23 18" fill="none" xmlns="http://www.w3.org/2000/svg">
<path d="M7.4375 8.5C8.51494 8.5 9.54825 8.07199 10.3101 7.31012C11.072 6.54825 11.5 5.51494 11.5 4.4375C11.5 3.36006 11.072 2.32675 10.3101 1.56488C9.54825 0.803012 8.51494 0.375 7.4375 0.375C6.36006 0.375 5.32675 0.803012 4.56488 1.56488C3.80301 2.32675 3.375 3.36006 3.375 4.4375C3.375 5.51494 3.80301 6.54825 4.56488 7.31012C5.32675 8.07199 6.36006 8.5 7.4375 8.5ZM14.5463 14.9313C15.2088 15.2025 16.0512 15.375 17.1237 15.375C22.1237 15.375 22.1238 11.625 22.1238 11.625C22.1238 11.1279 21.9264 10.6512 21.575 10.2996C21.2237 9.94802 20.7471 9.75033 20.25 9.75H14.465C14.9562 10.345 15.2513 11.1062 15.2513 11.9375V12.3825C15.2487 12.4878 15.2416 12.5929 15.23 12.6975C15.1457 13.4785 14.9128 14.2365 14.5463 14.9313ZM20.25 5.375C20.25 6.2038 19.9208 6.99866 19.3347 7.58471C18.7487 8.17076 17.9538 8.5 17.125 8.5C16.2962 8.5 15.5013 8.17076 14.9153 7.58471C14.3292 6.99866 14 6.2038 14 5.375C14 4.5462 14.3292 3.75134 14.9153 3.16529C15.5013 2.57924 16.2962 2.25 17.125 2.25C17.9538 2.25 18.7487 2.57924 19.3347 3.16529C19.9208 3.75134 20.25 4.5462 20.25 5.375ZM0.875 12.25C0.875 11.587 1.13839 10.9511 1.60723 10.4822C2.07607 10.0134 2.71196 9.75 3.375 9.75H11.5C12.163 9.75 12.7989 10.0134 13.2678 10.4822C13.7366 10.9511 14 11.587 14 12.25C14 12.25 14 17.25 7.4375 17.25C0.875 17.25 0.875 12.25 0.875 12.25Z" fill="white"/>
</svg>
