<?xml version="1.0" encoding="UTF-8"?>
<svg version="1.1" xmlns="http://www.w3.org/2000/svg" width="100" height="100">
<path d="M0 0 C1.72209938 -0.01913956 1.72209938 -0.01913956 3.47898865 -0.03866577 C4.71963577 -0.04089142 5.9602829 -0.04311707 7.23852539 -0.04541016 C8.51216446 -0.05206696 9.78580353 -0.05872375 11.09803772 -0.06558228 C13.79401611 -0.07571648 16.48959132 -0.08126327 19.18554688 -0.08007812 C22.6369737 -0.07987484 26.08757794 -0.10718546 29.53880978 -0.14162254 C32.8345176 -0.16923042 36.13021759 -0.16804045 39.42602539 -0.17041016 C41.28395973 -0.19196671 41.28395973 -0.19196671 43.1794281 -0.21395874 C44.90625572 -0.20472885 44.90625572 -0.20472885 46.66796875 -0.1953125 C48.18661781 -0.19958755 48.18661781 -0.19958755 49.73594666 -0.20394897 C53.10813689 0.4222749 54.26407611 1.667081 56.39868164 4.29052734 C58.12982079 7.75280565 57.74742451 11.49794865 57.39868164 15.29052734 C55.0697324 22.27737505 52.16919089 26.55301253 45.64868164 29.97802734 C33.98522075 35.75332169 19.69956668 36.14535513 7.27368164 32.66552734 C0.75996229 30.33802409 -4.40521653 27.26589112 -8.53881836 21.66552734 C-10.17112377 18.01684467 -10.75465303 14.7810378 -10.78881836 10.79052734 C-10.80299805 10.03771484 -10.81717773 9.28490234 -10.83178711 8.50927734 C-10.56826627 5.97233099 -9.97014317 4.43699016 -8.60131836 2.29052734 C-5.20545296 0.02661708 -3.98658567 0.03004251 0 0 Z " fill="#000000" transform="translate(26.601318359375,57.70947265625)"/>
<path d="M0 0 C5.14338337 2.9958329 8.76038445 7.90615335 10.625 13.5 C11.29523805 20.91656859 11.24300605 27.39459936 6.625 33.5 C2.84120492 37.45578577 -1.06894044 40.23020239 -6.546875 40.87109375 C-14.17255728 41.01261842 -19.62159802 40.8030094 -25.375 35.5 C-30.87449455 29.71105837 -31.85151038 24.28366421 -31.6796875 16.50390625 C-31.12961149 11.08072095 -29.45504755 7.41263929 -25.43359375 3.71484375 C-18.06940377 -2.02190093 -8.87596468 -3.89718372 0 0 Z " fill="#000000" transform="translate(60.375,9.5)"/>
</svg>
