<?xml version="1.0" encoding="UTF-8"?>
<svg version="1.1" xmlns="http://www.w3.org/2000/svg" width="48" height="48">
<path d="M0 0 C1.09376953 -0.02900391 2.18753906 -0.05800781 3.31445312 -0.08789062 C11.40316916 -0.15196942 11.40316916 -0.15196942 15.38671875 2.20703125 C19.65944996 7.20269746 18.1875 7.83348718 18.1875 16.3125 C6.3075 16.3125 -5.5725 16.3125 -17.8125 16.3125 C-17.8125 6.3125 -17.8125 6.3125 -15.9375 3.25 C-11.31586016 -0.96384809 -5.97261919 0.05223865 0 0 Z " fill="#C6D8C7" transform="translate(23.8125,27.6875)"/>
<path d="M0 0 C4.62 0 9.24 0 14 0 C13.690625 2.289375 13.690625 2.289375 13.375 4.625 C12.92837446 8.93218326 13.20088103 11.97843996 15 16 C14.01 16 13.02 16 12 16 C12 17.65 12 19.3 12 21 C6.39 21 0.78 21 -5 21 C-5 15.39 -5 9.78 -5 4 C-3.68 3.67 -2.36 3.34 -1 3 C-0.67 2.01 -0.34 1.02 0 0 Z " fill="#765555" transform="translate(19,4)"/>
<path d="M0 0 C0.99 3.63 1.98 7.26 3 11 C2.01 11 1.02 11 0 11 C0 12.65 0 14.3 0 16 C-3.63 16 -7.26 16 -11 16 C-12.15837573 12.52487282 -11.77265943 10.86329714 -11.0625 7.3125 C-10.86785156 6.31863281 -10.67320313 5.32476562 -10.47265625 4.30078125 C-10.31667969 3.54152344 -10.16070313 2.78226563 -10 2 C-8.52112267 1.66538533 -7.04188942 1.33234333 -5.5625 1 C-4.32693359 0.7215625 -4.32693359 0.7215625 -3.06640625 0.4375 C-1 0 -1 0 0 0 Z " fill="#B68E81" transform="translate(31,9)"/>
<path d="M0 0 C2.31 0 4.62 0 7 0 C6.34 1.32 5.68 2.64 5 4 C5.66 4.33 6.32 4.66 7 5 C6.64947365 8.15473719 6.13480924 9.8233534 4.1875 12.375 C3.465625 12.91125 2.74375 13.4475 2 14 C0.68 13.67 -0.64 13.34 -2 13 C-1.34 8.71 -0.68 4.42 0 0 Z " fill="#C8AA95" transform="translate(21,11)"/>
<path d="M0 0 C3.96 0 7.92 0 12 0 C10 4 10 4 9 5 C3.6360424 5.4664311 3.6360424 5.4664311 1.125 3.625 C0 2 0 2 0 0 Z " fill="#C4A593" transform="translate(18,28)"/>
<path d="M0 0 C2.31 0 4.62 0 7 0 C6.02501855 1.5027237 5.04490611 3.00211963 4.0625 4.5 C3.51722656 5.3353125 2.97195312 6.170625 2.41015625 7.03125 C1.71212891 8.00578125 1.71212891 8.00578125 1 9 C0.67 9 0.34 9 0 9 C0 6.03 0 3.06 0 0 Z " fill="#D6C0A2" transform="translate(21,11)"/>
<path d="M0 0 C0.66 0 1.32 0 2 0 C2.33 1.32 2.66 2.64 3 4 C2.01 4 1.02 4 0 4 C0 5.65 0 7.3 0 9 C-1.32 9 -2.64 9 -4 9 C-3.71125 8.443125 -3.4225 7.88625 -3.125 7.3125 C-1.9586747 4.91505355 -0.9660119 2.48403061 0 0 Z " fill="#B1847F" transform="translate(31,16)"/>
<path d="M0 0 C0 1.65 0 3.3 0 5 C-0.99 5.495 -0.99 5.495 -2 6 C-2.99 5.34 -3.98 4.68 -5 4 C-1.125 0 -1.125 0 0 0 Z " fill="#C4A592" transform="translate(31,9)"/>
</svg>
