<svg width="19" height="19" viewBox="0 0 19 19" fill="none" xmlns="http://www.w3.org/2000/svg">
<path fill-rule="evenodd" clip-rule="evenodd" d="M11.9845 13.0896C10.5805 14.2114 8.80022 14.753 7.00936 14.6032C5.2185 14.4534 3.55297 13.6235 2.35484 12.2841C1.15671 10.9446 0.516947 9.19726 0.566932 7.40084C0.616918 5.60442 1.35286 3.89532 2.62362 2.62456C3.89437 1.35381 5.60347 0.617864 7.39989 0.567878C9.19631 0.517893 10.9437 1.15766 12.2831 2.35579C13.6226 3.55391 14.4524 5.21944 14.6022 7.01031C14.752 8.80117 14.2104 10.5814 13.0886 11.9854L18.4595 17.3552C18.5362 17.4267 18.5978 17.513 18.6405 17.6088C18.6832 17.7047 18.7062 17.8081 18.708 17.913C18.7099 18.0179 18.6906 18.1221 18.6513 18.2194C18.612 18.3167 18.5535 18.405 18.4793 18.4792C18.4051 18.5534 18.3168 18.6119 18.2195 18.6512C18.1222 18.6905 18.018 18.7098 17.9131 18.7079C17.8082 18.7061 17.7047 18.6831 17.6089 18.6404C17.5131 18.5977 17.4268 18.5361 17.3553 18.4594L11.9845 13.0896ZM3.72823 11.4625C2.96369 10.6979 2.44297 9.72378 2.23189 8.66331C2.0208 7.60283 2.12882 6.50358 2.5423 5.50448C2.95578 4.50538 3.65615 3.65128 4.55491 3.05011C5.45366 2.44894 6.51046 2.12769 7.59174 2.12697C8.67302 2.12624 9.73024 2.44607 10.6298 3.04602C11.5294 3.64598 12.2309 4.49914 12.6457 5.49769C13.0605 6.49623 13.17 7.59533 12.9604 8.65609C12.7507 9.71685 12.2313 10.6916 11.4678 11.4573L11.4626 11.4625L11.4574 11.4667C10.4314 12.4902 9.04117 13.0647 7.59195 13.0639C6.14272 13.0632 4.75307 12.4872 3.72823 11.4625Z" fill="#222648"/>
</svg>
