<?xml version="1.0" encoding="UTF-8"?>
<svg version="1.1" xmlns="http://www.w3.org/2000/svg" width="100" height="100">
<path d="M0 0 C3.12578143 1.6720747 5.39281175 3.7856235 7 7 C7.51512617 11.09157355 7.94367269 15.23589546 5.953125 18.95703125 C3.55501226 21.85592636 1.60351712 23.79811835 -2.171875 24.2734375 C-9.98876369 24.58137554 -9.98876369 24.58137554 -13.5625 21.625 C-17.3057723 17.59378368 -17.39037018 14.90519941 -17.359375 9.55078125 C-16.78039966 5.44131496 -15.00085071 3.78650423 -12 1 C-8.27533151 -0.86233425 -4.05504687 -0.57130829 0 0 Z M-10.375 6.625 C-12.48706506 9.71186432 -12.61195145 11.3282913 -12 15 C-10.5 17.5 -10.5 17.5 -8 19 C-4.3282913 19.61195145 -2.71186432 19.48706506 0.375 17.375 C2.48706506 14.28813568 2.61195145 12.6717087 2 9 C0.5 6.5 0.5 6.5 -2 5 C-5.6717087 4.38804855 -7.28813568 4.51293494 -10.375 6.625 Z " fill="#000000" transform="translate(89,40)"/>
<path d="M0 0 C3.12578143 1.6720747 5.39281175 3.7856235 7 7 C7.51512617 11.09157355 7.94367269 15.23589546 5.953125 18.95703125 C3.55501226 21.85592636 1.60351712 23.79811835 -2.171875 24.2734375 C-9.98876369 24.58137554 -9.98876369 24.58137554 -13.5625 21.625 C-17.3057723 17.59378368 -17.39037018 14.90519941 -17.359375 9.55078125 C-16.78039966 5.44131496 -15.00085071 3.78650423 -12 1 C-8.27533151 -0.86233425 -4.05504687 -0.57130829 0 0 Z M-10.375 6.625 C-12.48706506 9.71186432 -12.61195145 11.3282913 -12 15 C-10.5 17.5 -10.5 17.5 -8 19 C-4.3282913 19.61195145 -2.71186432 19.48706506 0.375 17.375 C2.48706506 14.28813568 2.61195145 12.6717087 2 9 C0.5 6.5 0.5 6.5 -2 5 C-5.6717087 4.38804855 -7.28813568 4.51293494 -10.375 6.625 Z " fill="#000000" transform="translate(55,40)"/>
<path d="M0 0 C3.12578143 1.6720747 5.39281175 3.7856235 7 7 C7.51512617 11.09157355 7.94367269 15.23589546 5.953125 18.95703125 C3.55501226 21.85592636 1.60351712 23.79811835 -2.171875 24.2734375 C-9.98876369 24.58137554 -9.98876369 24.58137554 -13.5625 21.625 C-17.3057723 17.59378368 -17.39037018 14.90519941 -17.359375 9.55078125 C-16.78039966 5.44131496 -15.00085071 3.78650423 -12 1 C-8.27533151 -0.86233425 -4.05504687 -0.57130829 0 0 Z M-10.375 6.625 C-12.48706506 9.71186432 -12.61195145 11.3282913 -12 15 C-10.5 17.5 -10.5 17.5 -8 19 C-4.3282913 19.61195145 -2.71186432 19.48706506 0.375 17.375 C2.48706506 14.28813568 2.61195145 12.6717087 2 9 C0.5 6.5 0.5 6.5 -2 5 C-5.6717087 4.38804855 -7.28813568 4.51293494 -10.375 6.625 Z " fill="#000000" transform="translate(21,40)"/>
</svg>
