<svg width="5" height="17" viewBox="0 0 5 17" fill="none" xmlns="http://www.w3.org/2000/svg">
<path d="M0.416748 8.49999C0.416748 9.05252 0.636242 9.58243 1.02694 9.97313C1.41764 10.3638 1.94755 10.5833 2.50008 10.5833C3.05262 10.5833 3.58252 10.3638 3.97322 9.97313C4.36392 9.58243 4.58341 9.05252 4.58341 8.49999C4.58341 7.94745 4.36392 7.41755 3.97322 7.02685C3.58252 6.63615 3.05262 6.41666 2.50008 6.41666C1.94755 6.41666 1.41764 6.63615 1.02694 7.02685C0.636242 7.41755 0.416748 7.94745 0.416748 8.49999ZM0.416748 2.24999C0.416748 2.80252 0.636242 3.33243 1.02694 3.72313C1.41764 4.11383 1.94755 4.33332 2.50008 4.33332C3.05262 4.33332 3.58252 4.11383 3.97322 3.72313C4.36392 3.33243 4.58341 2.80252 4.58341 2.24999C4.58341 1.69746 4.36392 1.16755 3.97322 0.776851C3.58252 0.38615 3.05262 0.166656 2.50008 0.166656C1.94755 0.166656 1.41764 0.38615 1.02694 0.776851C0.636242 1.16755 0.416748 1.69746 0.416748 2.24999ZM0.416748 14.75C0.416748 15.3025 0.636242 15.8324 1.02694 16.2231C1.41764 16.6138 1.94755 16.8333 2.50008 16.8333C3.05262 16.8333 3.58252 16.6138 3.97322 16.2231C4.36392 15.8324 4.58341 15.3025 4.58341 14.75C4.58341 14.1975 4.36392 13.6676 3.97322 13.2769C3.58252 12.8861 3.05262 12.6667 2.50008 12.6667C1.94755 12.6667 1.41764 12.8861 1.02694 13.2769C0.636242 13.6676 0.416748 14.1975 0.416748 14.75Z" fill="#222648"/>
</svg>
